<?xml version="1.0" encoding="iso-8859-1"?>
<!-- Generator: Adobe Illustrator 19.0.0, SVG Export Plug-In . SVG Version: 6.00 Build 0)  -->
<svg version="1.1" id="Layer_1" xmlns="http://www.w3.org/2000/svg" xmlns:xlink="http://www.w3.org/1999/xlink" x="0px" y="0px"
	 viewBox="0 0 309.864 309.864" style="enable-background:new 0 0 309.864 309.864;" xml:space="preserve">
<g>
	<g>
		<g>
			<path d="M157.711,101.66c-0.084-0.888-0.52-1.608-1.26-2.084c-1.8-1.148-5.248-0.724-7.58,0.26c-2.948,1.244-3.78,2.04-6.256,4.4
				c-0.828,0.792-1.232,1.652-1.188,2.56c0.064,1.512,1.348,2.54,1.38,2.56l15.848,14.48l-0.036-1.06
				C158.591,122.048,157.999,104.748,157.711,101.66z M143.351,108.644c-0.012-0.008-1.008-0.828-1.056-1.892
				c-0.028-0.62,0.276-1.24,0.904-1.832c2.456-2.34,3.196-3.048,6-4.228c1.088-0.46,2.424-0.784,3.672-0.872
				c1.232-0.084,2.384,0.064,3.128,0.54c0.512,0.328,0.788,0.78,0.844,1.388c0.244,2.624,0.728,16.108,0.864,20.008L143.351,108.644
				z"/>
			<path d="M158.719,101.7l1.656,21.74l0.7-0.764c0.484-0.528,11.888-12.948,13.792-15.304c0.544-0.676,0.724-1.488,0.512-2.36
				c-0.516-2.128-3.328-4.388-5.708-5.432c-3-1.312-4.152-1.38-7.58-1.576c-1.132-0.056-2.016,0.232-2.612,0.884
				C158.475,99.988,158.711,101.66,158.719,101.7z M160.139,99.5c0.324-0.356,0.796-0.552,1.412-0.592
				c0.152-0.012,0.316-0.008,0.484,0c3.392,0.196,4.42,0.252,7.268,1.5c2.216,0.972,4.764,3.036,5.196,4.816
				c0.144,0.6,0.036,1.12-0.336,1.576c-1.616,2.004-10.48,11.692-13.052,14.504l-1.5-19.704
				C159.611,101.584,159.439,100.272,160.139,99.5z"/>
			<path d="M163.003,124.196c0.644-0.024,14.38-0.52,19.156-0.836c0.492-0.032,0.888-0.064,1.164-0.092
				c0.844-0.088,1.532-0.536,1.988-1.3c1.128-1.896,0.72-5.572-0.24-8.068c-1.204-3.128-1.972-4.012-4.244-6.64
				c-0.76-0.884-1.592-1.308-2.468-1.264c-0.016,0-0.032,0-0.048,0c-1.432,0.096-2.4,1.428-2.424,1.46l-13.896,16.776
				L163.003,124.196z M176.595,108.024c0.008-0.012,0.776-1.044,1.78-1.112c0.008,0,0.02,0,0.028,0
				c0.592-0.032,1.184,0.296,1.76,0.96c2.252,2.604,2.932,3.392,4.08,6.368c0.892,2.324,1.248,5.672,0.308,7.256
				c-0.312,0.524-0.744,0.804-1.312,0.864c-2.532,0.248-15.5,0.748-19.248,0.884L176.595,108.024z"/>
			<path d="M182.279,89.048c0.088,0,0.18,0,0.272,0c4.108,0,7.984-1.576,10.936-4.456c6.248-6.104,6.384-16.24,0.296-22.588
				c-0.688-0.716-1.424-1.324-2.188-1.86l2.564-7.352l59.756,17.62l-47.296-54.16l4.912-14.344L205.067,0l-4.888,14.28
				l-72.428,18.924L187.763,50.9l-2.516,7.044c-0.112-0.004-0.216-0.036-0.328-0.04c-3.916-0.04-8.196,1.852-11.836,5.408
				c-6.888,6.724-7.672,14.896-1.996,20.82c1.236,1.292,2.676,2.284,4.208,3.084l-1.704,4.992c-5.032-2.128-10.6-3.184-16.416-2.808
				c-11.956,0.776-22.164,7.308-28.184,16.692c-5.208-0.524-10.944-0.816-17.216-0.816c-2,0-3.872,0.064-5.752,0.124l0.46-6.588
				c-0.044-0.012-0.092-0.012-0.136-0.024l6.244-87.428l0.096-1.416l-12.136-0.848l-6.4,89.72c0.044,0,0.092-0.004,0.14-0.004
				l-0.516,7.388c-18.568,2.044-29.228,7.468-29.228,15.384c0,0.396,0.076,0.776,0.128,1.16c-0.156,1.272-0.272,2.58-0.364,3.964
				l-1.852,27.664c-0.572,8.556-6.936,115.824-6.488,120.468c1.056,10.864,8.932,35.024,57.904,35.024
				c2.892,0,5.924-0.084,9.108-0.26c29.512-1.632,46.536-12.256,49.236-30.724c0.832-5.68-4.304-72.844-8.032-117.344
				c18.8-2.436,32.792-19.08,31.552-38.264c-0.776-11.984-7.34-22.216-16.764-28.228l2.092-6.132
				C181.471,88.948,181.867,89.044,182.279,89.048z M206.363,2.516l2.548,0.752l-3.84,11.212l-1.048-1.2l-1.476,0.384L206.363,2.516
				z M164.463,41.076l20.328-11.492c0.272-0.152,0.368-0.5,0.216-0.768c-0.16-0.276-0.504-0.372-0.772-0.216l-21.28,12.032
				l-24.62-7.26l64.712-16.904l42.328,48.472l-24.884-7.34c0.212-0.168,0.304-0.456,0.164-0.7l-13.516-24.376
				c-0.152-0.276-0.5-0.372-0.772-0.224c-0.272,0.152-0.372,0.496-0.22,0.768l13.46,24.268l-28.128-8.296
				c0.024-0.036,0.08-0.024,0.096-0.068l6.316-17.848c0.104-0.292-0.052-0.616-0.344-0.724c-0.3-0.092-0.62,0.052-0.724,0.348
				l-6.316,17.848c-0.02,0.052,0.012,0.104,0.008,0.156L164.463,41.076z M189.723,51.48l2.48,0.732l-2.4,6.876
				c-0.804-0.388-1.632-0.692-2.488-0.888L189.723,51.48z M174.663,64.94c1.468-1.432,3.028-2.532,4.608-3.332
				c2.36,4.008-4.744,9.824-7.476,6.892C172.615,67.192,173.595,65.98,174.663,64.94z M172.723,82.564
				c-4.024-4.2-3.624-8.988-1.504-13c3.748,3.48,11.788-3.488,9.092-8.412c1.476-0.608,2.96-0.98,4.404-0.98
				c0.056,0,0.112,0,0.168,0c2.712,0.048,5.156,1.192,7.272,3.4c5.228,5.456,5.12,14.156-0.248,19.396
				c-2.58,2.516-5.948,3.988-9.584,3.812C178.675,86.72,175.267,85.22,172.723,82.564z M111.779,109.28
				c5.544,0,10.528,0.24,15.052,0.648c-0.644,1.336-1.212,2.712-1.692,4.128c-3.932-0.264-8.096-0.432-12.64-0.432
				c-2.46,0-4.776,0.068-7.056,0.148l0.304-4.376C107.687,109.328,109.667,109.28,111.779,109.28z M157.215,128.068
				c0.908,9.076,2.48,27.296,4.164,48.08c-6.688-4.048-27.888-7.544-48.808-7.544c-3.68,0-7.36,0.12-10.976,0.32l2.18-31.212
				c2.572,0.108,5.22,0.18,8.008,0.18C134.611,137.884,150.783,134.244,157.215,128.068z M134.383,129.144
				c0.332-0.544,0.788-0.84,1.396-0.9c0.284-0.028,0.692-0.056,1.196-0.092c2.992-0.192,9.408-0.456,14.252-0.644
				c-3.756,2.036-9.584,3.784-17.388,4.936C133.771,131.14,133.903,129.928,134.383,129.144z M161.327,129.032l15.536,13.448
				c0.012,0.008,1.1,0.856,1.152,1.956c0.032,0.64-0.3,1.28-0.984,1.896c-2.68,2.42-3.488,3.148-6.536,4.376
				c-2.276,0.908-5.5,1.268-7.192,0.412C162.507,141.852,161.819,134.132,161.327,129.032z M161.643,179.412
				c-3.056,2.832-22.796,7.936-49.072,7.936c-4.276,0-8.352-0.148-12.236-0.388l1.156-16.572c3.536-0.196,7.232-0.312,11.08-0.312
				c25.972,0,45.548,4.984,48.952,7.832C161.559,178.412,161.603,178.908,161.643,179.412z M123.307,127.964
				c0.124,1.892,0.436,3.72,0.836,5.512c-3.8,0.264-7.916,0.408-12.368,0.408c-2.728,0-5.272-0.072-7.728-0.172l1.252-17.908
				c2.292-0.084,4.656-0.144,7.2-0.144c4.412,0,8.364,0.156,12.052,0.392C123.511,119.836,123.039,123.836,123.307,127.964z
				 M97.035,98.24l6.152-86.112l6.48,0.456l-6.164,86.248c0.044,0.004,0.088,0.024,0.136,0.028l-2.424,34.724
				c-2.3-0.136-4.432-0.328-6.476-0.548l2.432-34.808C97.127,98.232,97.083,98.236,97.035,98.24z M94.463,137.044
				c2.072,0.216,4.212,0.404,6.476,0.536l-2.2,31.508c-2.232,0.156-4.412,0.352-6.556,0.572L94.463,137.044z M91.031,186.164
				l1.048-15.02c2.1-0.22,4.292-0.408,6.556-0.568l-1.132,16.208C95.251,186.608,93.111,186.396,91.031,186.164z M97.399,188.232
				l-6.068,86.876l-6.484-0.452l6.08-87.02C93.035,187.86,95.195,188.064,97.399,188.232z M91.923,132.712
				c-11.112-1.472-18.068-4.168-21.268-7.16c0.756-3.536,7.936-7.124,22.388-8.836L91.923,132.712z M93.487,110.276l-0.304,4.36
				c-13.208,1.512-21.752,4.68-24.044,9.08c-0.184-0.336-0.336-0.672-0.432-1.008c0.036-0.248,0.056-0.524,0.1-0.764l-0.216-0.04
				c-0.008-0.108-0.048-0.216-0.048-0.324C68.543,117.052,76.507,112.28,93.487,110.276z M66.447,154.636l1.732-25.86
				c4.304,3.8,12.32,6.528,23.46,7.956l-2.32,33.232c-10.576,1.248-19.44,3.228-24.136,5.436
				C65.779,165.28,66.251,157.58,66.447,154.636z M65.087,176.996c3.732-1.82,12.384-4.092,24.128-5.528l-1.004,14.368
				c-11.476-1.468-19.816-3.728-23.32-5.516C64.959,179.188,65.023,178.076,65.087,176.996z M64.803,181.836
				c4.412,2.196,12.984,4.176,23.308,5.464l-5.508,78.832c-10.464,1.696-18.476,4.112-22.652,6.66
				C60.159,262.972,62.915,213.968,64.803,181.836z M122.759,305.608c-16.452,0.884-53.24,0.06-61.356-24.312
				c8.708,4.42,28.736,8.256,52.8,8.256c24.792,0,45.28-4.072,53.536-8.66C164.139,295.836,149.039,304.152,122.759,305.608z
				 M168.271,278.112c-4.808,3.556-24.784,9.176-54.068,9.176c-28.46,0-48.092-5.304-53.596-8.864
				c-0.228-1.012-0.412-2.056-0.544-3.144c2.632-2.052,10.48-4.808,22.372-6.792l-0.516,7.384l-0.096,1.416l12.14,0.844
				l0.784-11.232c5.904-0.548,12.384-0.892,19.452-0.892c29.344,0,49.344,5.64,54.104,9.196
				C168.335,276.608,168.327,277.596,168.271,278.112z M168.231,272.684c-7.9-4.704-28.712-8.948-54.024-8.948
				c-6.832,0-13.28,0.336-19.296,0.884l5.32-76.196c4.052,0.252,8.196,0.4,12.34,0.4c21.368,0,43.012-3.656,49.2-7.812
				C164.627,216.564,167.663,257.692,168.231,272.684z M192.411,123.484c1.124,17.368-11.504,32.46-28.504,34.74
				c-0.176-2.096-0.348-4.124-0.516-6.092c0.92,0.328,1.996,0.492,3.18,0.416c1.48-0.096,3.028-0.456,4.28-0.956
				c3.204-1.288,4.116-2.108,6.82-4.552c0.904-0.816,1.34-1.708,1.296-2.648c-0.072-1.564-1.472-2.628-1.504-2.648l-16.272-14.108
				c-0.052-0.516-0.104-1.056-0.148-1.504l0.54,0.492c0.552,0.504,13.524,12.392,15.984,14.372c0.564,0.456,1.22,0.668,1.924,0.624
				c0.176-0.012,0.352-0.04,0.532-0.08c2.228-0.524,4.588-3.448,5.676-5.936c1.364-3.12,1.432-4.32,1.632-7.884
				c0.068-1.196-0.256-2.116-0.952-2.736c-1.148-1.016-2.88-0.772-2.912-0.768l-22.452,1.676c-0.064-0.604-0.124-1.18-0.172-1.64
				l-3.296,0.368l-0.084-0.08c-0.552-0.52-13.508-12.752-15.96-14.792c-0.704-0.584-1.556-0.788-2.456-0.56
				c-2.228,0.536-4.592,3.54-5.684,6.092c-1.368,3.2-1.436,4.432-1.64,8.096c-0.068,1.228,0.248,2.176,0.944,2.808
				c0.916,0.836,2.208,0.848,2.704,0.816c0.124-0.008,0.196-0.02,0.204-0.02l18.516-1.388c-0.352,0.304-0.74,0.604-1.172,0.9
				c-5.656,0.216-14.992,0.588-17.228,0.804c-0.896,0.088-1.628,0.556-2.112,1.344c-0.6,0.98-0.764,2.416-0.672,3.932
				c-1.708,0.236-3.492,0.448-5.38,0.624c-0.428-1.768-0.764-3.572-0.888-5.452c-1.176-18.136,12.624-33.844,30.76-35.02
				C175.527,91.552,191.235,105.348,192.411,123.484z M163.015,126.668l20.556-1.532c0.008,0.004,1.364-0.18,2.168,0.54
				c0.472,0.42,0.688,1.092,0.64,1.996c-0.2,3.532-0.26,4.6-1.556,7.572c-1.012,2.308-3.168,4.96-5.028,5.396
				c-0.616,0.144-1.148,0.032-1.628-0.356C176.079,138.6,165.935,129.336,163.015,126.668z M156.019,124.492l-20.556,1.544
				c-0.008,0-1.36,0.176-2.16-0.552c-0.476-0.432-0.688-1.124-0.636-2.056c0.204-3.628,0.264-4.724,1.568-7.768
				c1.012-2.376,3.172-5.092,5.032-5.544c0.128-0.032,0.252-0.048,0.372-0.056c0.464-0.032,0.876,0.108,1.252,0.42
				C142.979,112.216,153.107,121.748,156.019,124.492z M177.383,94.064c-0.692-0.392-1.4-0.76-2.12-1.108l1.7-4.98
				c0.736,0.28,1.48,0.552,2.252,0.72L177.383,94.064z"/>
			<path d="M185.795,63.128c2.236,0.164,3.976,1.384,4.996,3.364c0.336,0.648,1.312,0.076,0.98-0.572
				c-1.208-2.344-3.352-3.736-5.976-3.928C185.067,61.944,185.071,63.076,185.795,63.128z"/>
			<path d="M191.383,67.7c0.056,0.156,0.112,0.312,0.164,0.468c0.24,0.684,1.336,0.388,1.092-0.3
				c-0.056-0.156-0.112-0.312-0.164-0.468C192.235,66.716,191.139,67.012,191.383,67.7z"/>
		</g>
	</g>
</g>
<g>
</g>
<g>
</g>
<g>
</g>
<g>
</g>
<g>
</g>
<g>
</g>
<g>
</g>
<g>
</g>
<g>
</g>
<g>
</g>
<g>
</g>
<g>
</g>
<g>
</g>
<g>
</g>
<g>
</g>
</svg>
